<svg width="512" height="512" viewBox="0 0 512 512" fill="none" xmlns="http://www.w3.org/2000/svg">
<rect width="512" height="512"/>
<path d="M33.5879 440.662C30.4954 440.337 28.1354 438.953 26.5078 436.512C24.8802 434.07 24.2292 431.385 24.5547 428.455C25.3685 423.41 26.9147 418.771 29.1934 414.539C31.472 410.307 33.0996 407.133 34.0762 405.018C35.2155 402.902 36.3548 400.542 37.4941 397.938L46.7715 376.453L147.113 75.916L255.023 284.412L359.76 75.916L485.004 437H353.9L293.354 250.477L199.604 445.789L100.971 270.008L66.791 376.697C61.4199 388.579 57.5951 398.67 55.3164 406.971C53.0378 415.271 51.166 421.701 49.7012 426.258C46.446 436.512 41.0749 441.313 33.5879 440.662Z" fill="white"/>
</svg>
