<svg width="95" height="105" viewBox="0 0 95 105" fill="none" xmlns="http://www.w3.org/2000/svg">
<g id="split svg arm">
<rect id="doigt 1" x="16.998" y="50" width="5" height="13" fill="#222222" class="svg-elem-1"></rect>
<rect id="doigt 2" x="10.2812" y="43" width="5" height="12" transform="rotate(58.9705 10.2812 43)" fill="#222222" class="svg-elem-2"></rect>
<rect id="phalange 2" x="7.41895" y="57.9854" width="5" height="10.3138" transform="rotate(165.511 7.41895 57.9854)" fill="#222222" class="svg-elem-3"></rect>
<rect id="phalange 1" x="12.1816" y="65.3359" width="5" height="10.071" transform="rotate(-103.069 12.1816 65.3359)" fill="#222222" class="svg-elem-4"></rect>
<g id="part 3">
<rect id="avant-bras" x="27.6504" y="15.1719" width="10.5954" height="29.0055" transform="rotate(28.8448 27.6504 15.1719)" fill="#222222" class="svg-elem-5"></rect>
<circle id="axe 4" cx="16.999" cy="45" r="8" fill="#444343" class="svg-elem-6"></circle>
</g>
<g id="part 2">
<rect id="bras" x="76.6416" y="22.5674" width="20.4315" height="36.8534" transform="rotate(120 76.6416 22.5674)" fill="#222222" class="svg-elem-7"></rect>
<circle id="axe 3" cx="35.999" cy="11" r="7" stroke="#444343" stroke-width="8" class="svg-elem-8"></circle>
</g>
<g id="part 1">
<rect id="bras 1.2" x="84.6875" y="37.6914" width="10.5954" height="41.918" transform="rotate(28.8448 84.6875 37.6914)" fill="#181818" class="svg-elem-9"></rect>
<rect id="bras 1" x="64.2471" y="31" width="10.5954" height="40.2097" transform="rotate(28.8448 64.2471 31)" fill="#181818" class="svg-elem-10"></rect>
<circle id="axe 2" cx="78.999" cy="37" r="10.5" stroke-width="11" class="svg-elem-11"></circle>
</g>
<g id="base">
<g id="axe 1">
<mask id="mask0_2774_3733" style="mask-type:alpha" maskUnits="userSpaceOnUse" x="31" y="56" width="49" height="25">
<rect id="masque axe 1" x="32.499" y="56.5" width="47" height="24" fill="#D9D9D9" stroke="#444343" class="svg-elem-12"></rect>
</mask>
<g mask="url(#mask0_2774_3733)">
<path id="elipse axe 1" d="M68.999 82C68.999 89.4934 62.5281 96 53.999 96C45.47 96 38.999 89.4934 38.999 82C38.999 74.5066 45.47 68 53.999 68C62.5281 68 68.999 74.5066 68.999 82Z" stroke="#444343" stroke-width="10" class="svg-elem-13"></path>
</g>
</g>
<rect id="base 1.2" x="63.999" y="81" width="10" height="19" fill="blue" class="svg-elem-14"></rect>
<rect id="base 1.1" x="33.999" y="81" width="10" height="19" fill="blue" class="svg-elem-15"></rect>
<rect id="base_2" x="21.999" y="94" width="62" height="11" fill="blue" class="svg-elem-16"></rect>
</g>
</g>
</svg>
